# xmcd
#
# Track frame offsets:
#	150
#	20701
#	46190
#	64387
#	86538
#	105428
#	123380
#	147613
#	164966
#	185011
#	202652
#	214107
#	237656
#	251823
#	273286
#	293973
#	321887
#
# Disc length: 4500 seconds
#
# Revision: 1
# Processed by: cddbd v1.5.1PL2 Copyright (c) Steve Scherf et al.
# Submitted via: EasyCDDAExtractor 9.0.0.1
#
DISCID=0e119211
DTITLE=Out Kast - Roses
DYEAR=2003
DGENRE=Hip-Hop
TTITLE0=Funkin' Around
TTITLE1=Ain't No Thang
TTITLE2=So Fresh, So Clean
TTITLE3=The Whole World (Feat. Killer Mike)
TTITLE4=Southernplayalisticadillacmuzik
TTITLE5=Ms. Jackson
TTITLE6=Happy Valentines's Day
TTITLE7=Spread Listen
TTITLE8=She Lives In My Lap (Faet. Rosario Dawson)
TTITLE9=Hey Ya!
TTITLE10=Dracula's Wedding (Feat. Kelis)
TTITLE11=Take Off Your Cool (Feat. Norah Lones)
TTITLE12=Bust (Feat. Killer Mike)
TTITLE13=Tomb Of The Boom (Feat. Ludacris)
TTITLE14=Flip Flop Rock (Feat. Killer Mike)
TTITLE15=Roses
TTITLE16=Church
EXTD=
EXTT0=
EXTT1=
EXTT2=
EXTT3=
EXTT4=
EXTT5=
EXTT6=
EXTT7=
EXTT8=
EXTT9=
EXTT10=
EXTT11=
EXTT12=
EXTT13=
EXTT14=
EXTT15=
EXTT16=
PLAYORDER=
